<?xml version="1.0" encoding="utf-8"?>
<!-- Generator: Adobe Illustrator 27.5.0, SVG Export Plug-In . SVG Version: 6.00 Build 0)  -->
<svg version="1.1" id="Layer_1" xmlns="http://www.w3.org/2000/svg" xmlns:xlink="http://www.w3.org/1999/xlink" x="0px" y="0px"
	 viewBox="0 0 408 70" style="enable-background:new 0 0 408 70;" xml:space="preserve">
<style type="text/css">
	.st0{fill:#D9D9D9;}
	.st1{fill:url(#SVGID_1_);}
	.st2{fill:url(#SVGID_00000106130053144005435850000007130205206910583993_);}
	.st3{fill:url(#SVGID_00000128461473511948131220000008823494333090866081_);}
	.st4{fill:url(#SVGID_00000085950419685968144710000010622248766767155126_);}
	.st5{fill:url(#SVGID_00000093888749468131577940000015814293396125234609_);}
	.st6{fill:url(#SVGID_00000023977090044355129570000016238156332813863328_);}
	.st7{fill:url(#SVGID_00000028299887274216077290000015548229190717471929_);}
	.st8{fill:url(#SVGID_00000108993249183992086640000014559818025409856682_);}
	.st9{fill:url(#SVGID_00000084523137240169296150000003367790572505813168_);}
	.st10{fill:url(#SVGID_00000083060491184224492250000010395898433841087658_);}
	.st11{fill:url(#SVGID_00000096764168820930567810000011795375475818841782_);}
	.st12{fill:url(#SVGID_00000016042665500205088450000011926567636149137537_);}
	.st13{fill:url(#SVGID_00000013154766936406706850000007858511662235119503_);}
	.st14{fill:url(#SVGID_00000039849714013817920600000015596210091393856393_);}
	.st15{fill:url(#SVGID_00000004542300663520996160000012949935261436298918_);}
	.st16{fill:url(#SVGID_00000139278080434653454670000000782373953532867222_);}
	.st17{fill:url(#SVGID_00000004518094809216603690000010595663422811544500_);}
	.st18{fill:url(#SVGID_00000004536917343895327160000007098450784870343606_);}
	.st19{fill:url(#SVGID_00000033327373368936801020000015887793674704560819_);}
	.st20{fill:url(#SVGID_00000050621197536535036120000004882971597878074784_);}
	.st21{fill:url(#SVGID_00000132089162569766716590000016296887674373714869_);}
	.st22{fill:url(#SVGID_00000149355827569623484920000006017056880000349583_);}
	.st23{fill:url(#SVGID_00000088822048422141208970000012623417684568176794_);}
	.st24{fill:url(#SVGID_00000182500222370101810840000000724743908071045275_);}
	.st25{fill:#1E1E1E;}
	.st26{fill:url(#SVGID_00000158722737099945134050000004934690491987771839_);}
	.st27{fill:url(#SVGID_00000059282391536724385620000010061279910614414002_);}
	.st28{fill:url(#SVGID_00000131329307791834044570000013323343092868951718_);}
	.st29{fill:url(#SVGID_00000147187799513520290480000006195054756725325200_);}
	.st30{fill:url(#SVGID_00000136404542172972356150000006480482312912183982_);}
	.st31{fill:url(#SVGID_00000041262209057412096000000015933162342787666321_);}
	.st32{fill:url(#SVGID_00000076561905036917373190000013576521189616844970_);}
	.st33{fill:url(#SVGID_00000070097882677191878460000012474078787857758123_);}
	.st34{fill:url(#SVGID_00000164497030804244588870000005491599739462858883_);}
	.st35{fill:url(#SVGID_00000085240996381143381680000002524742457234104757_);}
	.st36{fill:url(#SVGID_00000043444531256581343490000011399408965471521434_);}
	.st37{fill:url(#SVGID_00000104707090667928049360000002003946635606656915_);}
	.st38{fill:url(#SVGID_00000066515061657134230740000007297941981734924420_);}
	.st39{fill:url(#SVGID_00000048466065544103254630000001832375195456773508_);}
	.st40{fill:url(#SVGID_00000134967200972351854160000016438750342081104781_);}
	.st41{fill:url(#SVGID_00000168099923976622279890000015428448502890521254_);}
	.st42{fill:url(#SVGID_00000073000792695505816320000000702395243650638744_);}
	.st43{fill:url(#SVGID_00000172415477047111261790000014037895250550242180_);}
	.st44{fill:#FFFFFF;}
	.st45{fill:url(#SVGID_00000106143674383353906060000007010479122949615762_);}
	.st46{fill:url(#SVGID_00000152247199188865478710000001849140615341608595_);}
	.st47{fill:url(#SVGID_00000042006501586946375990000014410750009048224424_);}
	.st48{fill:url(#SVGID_00000103985314761584813370000010499177889604660374_);}
	.st49{fill:url(#SVGID_00000163776326357860931160000000574552247876118686_);}
	.st50{fill:url(#SVGID_00000057139811277706979700000010090173222630580130_);}
	.st51{fill:url(#SVGID_00000176026336324579400500000008048693078915088044_);}
	.st52{fill:url(#SVGID_00000041263199102978933820000007833175575669126533_);}
	.st53{fill:url(#SVGID_00000070811572822125168460000003223913249867773075_);}
	.st54{fill:url(#SVGID_00000144324439856779113300000010750744071512445076_);}
	.st55{fill:url(#SVGID_00000121966601046703035950000005139277676721937060_);}
	.st56{fill:url(#SVGID_00000084491213185637315680000004637123288925084821_);}
	.st57{fill:url(#SVGID_00000037675076901960914080000015031347895885297304_);}
	.st58{fill:url(#SVGID_00000015314757783908001110000010140561421387833501_);}
	.st59{fill:url(#SVGID_00000158736185793205195940000006019293208406908346_);}
	.st60{fill:url(#SVGID_00000052813378857233581130000012800651201529109392_);}
	.st61{fill:url(#SVGID_00000078743695048806391650000010692939184284617406_);}
	.st62{fill:url(#SVGID_00000033328979057166442780000003576581493416227234_);}
	.st63{fill:url(#SVGID_00000054263871093472603540000008999458571960193207_);}
	.st64{fill:url(#SVGID_00000146492282479613662550000009694311479542713506_);}
	.st65{fill:url(#SVGID_00000145746896039348069630000018382056084639945870_);}
</style>
<g>
	<linearGradient id="SVGID_1_" gradientUnits="userSpaceOnUse" x1="318.3597" y1="21.4271" x2="348.2139" y2="21.4271">
		<stop  offset="0" style="stop-color:#FF003A"/>
		<stop  offset="1" style="stop-color:#F130E9"/>
	</linearGradient>
	<path class="st1" d="M348.21,21.43c0,0.33-0.01,0.66-0.03,0.99c-0.51,7.78-6.98,13.93-14.89,13.93c-7.95,0-14.44-6.21-14.9-14.04
		c-0.02-0.29-0.03-0.59-0.03-0.88c0-8.24,6.68-14.93,14.93-14.93c7.84,0,14.27,6.04,14.88,13.73
		C348.2,20.62,348.21,21.02,348.21,21.43z"/>
</g>
<g>
	
		<linearGradient id="SVGID_00000065790533012666539640000003121832961053899174_" gradientUnits="userSpaceOnUse" x1="341.1455" y1="21.4271" x2="370.9996" y2="21.4271">
		<stop  offset="0" style="stop-color:#00FF6D"/>
		<stop  offset="1" style="stop-color:#42D4CE"/>
	</linearGradient>
	<circle style="fill:url(#SVGID_00000065790533012666539640000003121832961053899174_);" cx="356.07" cy="21.43" r="14.93"/>
</g>
<g>
	
		<linearGradient id="SVGID_00000061465691806991739490000017661730565512668329_" gradientUnits="userSpaceOnUse" x1="363.9312" y1="21.4271" x2="393.7854" y2="21.4271">
		<stop  offset="0" style="stop-color:#003BFF"/>
		<stop  offset="1" style="stop-color:#00FEFF"/>
	</linearGradient>
	<circle style="fill:url(#SVGID_00000061465691806991739490000017661730565512668329_);" cx="378.86" cy="21.43" r="14.93"/>
</g>
<g>
	<path class="st25" d="M307.73,44.26c-1.47,0-2.75-1.09-2.75-2.72c0-1.63,1.28-2.69,2.75-2.69c1.47,0,2.75,1.07,2.75,2.69
		C310.48,43.17,309.2,44.26,307.73,44.26z M309.39,58.91h-3.28l-0.69-0.69V46.26l0.69-0.69h3.28l0.69,0.69v11.95L309.39,58.91z"/>
	<path class="st25" d="M313.6,45.57h2.99l0.61,0.61c0.91-0.72,2.11-1.15,3.44-1.15c3.15,0,5.47,2.35,5.47,5.47v7.71l-0.69,0.69
		h-3.25l-0.72-0.69v-6.8c0-1.23-0.8-2.05-1.92-2.05s-1.95,0.77-1.95,1.95v6.91l-0.69,0.69h-3.28l-0.69-0.69V46.26L313.6,45.57z"/>
	<path class="st25" d="M330.01,54.43v-4.61h-1.81l-0.69-0.72v-2.83l0.69-0.69h1.84v-3.31l0.72-0.69h3.2l0.69,0.69v3.31h2.99
		l0.69,0.69v2.83l-0.69,0.72h-2.99v3.95c0,0.96,0.53,1.44,1.31,1.44c0.43,0,0.83-0.13,1.23-0.35l0.8,0.43l0.69,2.48l-0.35,0.83
		c-1.04,0.59-2.16,0.85-3.36,0.85C331.77,59.44,330.01,57.79,330.01,54.43z"/>
	<path class="st25" d="M346.78,59.44c-4.83,0-7.49-2.88-7.49-7.2c0-4.24,2.67-7.2,6.96-7.2c4.03,0,6.69,2.77,6.69,6.51v1.41
		l-0.69,0.69h-8.54c0.37,1.12,1.52,1.84,3.12,1.84c1.04,0,1.87-0.32,2.43-0.93l0.99-0.05l2.11,1.63l0.05,0.96
		C351.37,58.48,349.32,59.44,346.78,59.44z M343.74,50.64h5.01c-0.27-1.25-1.17-1.87-2.51-1.87C345,48.77,344.06,49.41,343.74,50.64
		z"/>
	<path class="st25" d="M359.77,51.87v6.35l-0.69,0.69h-3.28l-0.69-0.69V46.26l0.69-0.69h2.93l0.69,0.69
		c0.64-0.45,1.39-0.69,2.27-0.69h1.76l0.69,0.69v2.83l-0.69,0.72h-1.6C360.55,49.81,359.77,50.67,359.77,51.87z"/>
	<path class="st25" d="M365,52.24c0-4.16,2.88-7.2,7.23-7.2c1.07,0,2.08,0.19,2.93,0.53h2.91l0.69,0.69v2.69
		c0.45,0.96,0.69,2.08,0.69,3.28s-0.24,2.32-0.69,3.28v2.69l-0.69,0.69h-2.91c-0.85,0.35-1.87,0.53-2.93,0.53
		C367.88,59.44,365,56.4,365,52.24z M375,52.24c0-1.65-1.15-2.88-2.77-2.88c-1.65,0-2.8,1.23-2.8,2.88s1.15,2.88,2.8,2.88
		C373.86,55.12,375,53.89,375,52.24z"/>
	<path class="st25" d="M380.95,52.24c0-4.16,2.8-7.2,7.04-7.2c3.36,0,5.71,1.76,6.45,4.29l-0.37,0.8l-2.85,1.07l-0.91-0.27
		c-0.32-0.99-1.17-1.6-2.32-1.6c-1.55,0-2.64,1.23-2.64,2.91s1.09,2.91,2.64,2.91c1.12,0,2-0.61,2.32-1.6l0.91-0.27l2.85,1.07
		l0.37,0.8c-0.75,2.53-3.09,4.29-6.45,4.29C383.75,59.44,380.95,56.4,380.95,52.24z"/>
	<path class="st25" d="M397.49,54.43v-4.61h-1.81l-0.69-0.72v-2.83l0.69-0.69h1.84v-3.31l0.72-0.69h3.2l0.69,0.69v3.31h2.99
		l0.69,0.69v2.83l-0.69,0.72h-2.99v3.95c0,0.96,0.53,1.44,1.31,1.44c0.43,0,0.83-0.13,1.23-0.35l0.8,0.43l0.69,2.48l-0.35,0.83
		c-1.04,0.59-2.16,0.85-3.36,0.85C399.25,59.44,397.49,57.79,397.49,54.43z"/>
</g>
<g>
	<path class="st25" d="M1,58.69C1,45.3,1,32.03,1,18.68c19.89,0,39.7,0,59.63,0c0.03,0.47,0.08,0.9,0.08,1.33
		c0.01,12.44-0.01,24.88,0.03,37.32c0,1.07-0.25,1.45-1.4,1.45c-19.04-0.03-38.09-0.02-57.13-0.03C1.86,58.75,1.51,58.72,1,58.69z
		 M19.15,40.48c0.99-1.59,2.19-2.81,2.56-4.24c1.04-4.01-1.26-6.82-5.56-7.05c-2.18-0.12-4.37,0.03-6.55-0.07
		c-1.31-0.06-1.69,0.4-1.67,1.67c0.06,4.85,0,9.71,0.03,14.56c0.02,3.25-0.38,2.71,2.88,2.81c1.07,0.03,1.39-0.35,1.38-1.39
		c-0.05-4.19-0.02-8.37-0.02-12.56c0-0.47,0-0.95,0-1.58c0.78,0,1.39-0.01,2,0c0.53,0.01,1.07,0.01,1.6,0.08
		c1.05,0.14,1.72,0.7,1.81,1.81c0.1,1.13-0.07,2.13-1.25,2.68c-1.78,0.82-2.33,2.57-1.37,4.32c1.01,1.83,2.02,3.67,3.06,5.48
		c0.21,0.37,0.53,0.95,0.83,0.97c1.46,0.1,2.94,0.05,4.78,0.05C21.95,45.16,20.44,42.62,19.15,40.48z M44.79,48.35
		c0.01,0.06,0.02,0.12,0.03,0.18c1.84-0.24,3.72-0.34,5.53-0.76c1.98-0.47,3.38-1.73,3.86-3.83c0.73-3.19-0.53-5.54-3.64-6.62
		c-1.34-0.47-2.74-0.77-4.1-1.19c-0.95-0.29-1.54-0.88-1.42-1.97c0.12-1.04,0.89-1.36,1.76-1.53c0.35-0.07,0.71-0.07,1.06-0.06
		c1.29,0.05,2.59,0.05,3.87,0.19c1.04,0.11,1.64-0.12,1.67-1.27c0.01-0.49,0.23-0.98,0.18-1.45c-0.03-0.3-0.37-0.8-0.6-0.82
		c-3.01-0.24-6.05-0.73-8.99,0.4c-2.09,0.8-3.15,2.38-3.22,4.62c-0.08,2.78,1.21,4.66,3.86,5.57c0.76,0.26,1.55,0.42,2.32,0.64
		c0.47,0.13,0.95,0.26,1.41,0.42c0.99,0.35,1.77,0.88,1.66,2.1c-0.12,1.27-1.07,1.6-2.09,1.62c-1.82,0.03-3.65-0.1-5.47-0.11
		c-0.45,0-1.22,0.1-1.28,0.33c-0.28,0.92-0.48,1.91-0.4,2.85c0.02,0.24,1.21,0.42,1.88,0.53C43.36,48.3,44.08,48.3,44.79,48.35z
		 M33.5,32.75c1.6,0,2.98-0.08,4.35,0.02c1.73,0.12,1.34-1.06,1.41-2.03c0.08-1.05-0.13-1.65-1.42-1.63
		c-4.32,0.07-8.65,0.06-12.97,0c-1.27-0.02-1.52,0.55-1.44,1.62c0.08,0.97-0.34,2.16,1.41,2.04c1.44-0.1,2.89-0.02,4.42-0.02
		c0,4.35-0.02,8.44,0.01,12.53c0.02,3.25-0.55,2.79,2.94,2.87c1.01,0.02,1.33-0.38,1.31-1.34c-0.04-1.65-0.01-3.3-0.01-4.95
		C33.5,38.9,33.5,35.92,33.5,32.75z"/>
	<path class="st25" d="M267.91,39.46c0-4.72,0-9.38,0-14.03c6.91-1.21,16.51,4.93,20.03,12.75c4.19,9.29,1.61,20.13-6.29,26.46
		c-7.87,6.3-18.97,6.49-26.96,0.5c-8.9-6.68-10.38-17.54-7.75-24.58c4.46,1.45,8.92,2.9,13.35,4.35c-0.39,6.03,2.04,9.72,6.63,10.17
		c4.18,0.42,7.94-2.37,8.56-6.36C276.23,44.03,273.42,40.54,267.91,39.46z"/>
	<path class="st25" d="M225.6,42.89c0,5.25,0,10.44,0,15.73c-2.69,0-5.24,0-7.86,0c0-13.33,0-26.59,0-39.83
		c0.1-0.08,0.17-0.17,0.24-0.17c4.45,0.01,8.92-0.15,13.36,0.11c4.15,0.25,7,2.85,8.09,6.87c0.92,3.38,0.86,6.79-0.07,10.17
		c-0.52,1.89-1.46,3.56-3.12,4.69c-0.68,0.46-0.77,0.89-0.55,1.64c1.48,4.95,2.92,9.91,4.37,14.87c0.15,0.5,0.27,1.02,0.47,1.76
		c-2.64,0-5.16,0.03-7.67-0.05c-0.27-0.01-0.66-0.63-0.76-1.02c-1.15-4.3-2.25-8.62-3.36-12.93C228.17,42.6,228.17,42.6,225.6,42.89
		z M225.66,36.84c1.08,0,2,0.01,2.92,0c1.46-0.02,2.48-0.75,2.94-2.1c0.84-2.47,0.84-4.99-0.01-7.46c-0.37-1.07-1.12-1.9-2.28-2.02
		c-1.17-0.13-2.36-0.03-3.58-0.03C225.66,29.09,225.66,32.86,225.66,36.84z"/>
	<path class="st25" d="M115.82,38.58c0,2.94-0.09,5.88,0.02,8.82c0.34,9.76-7.07,12.67-13.73,11.79c-6.28-0.82-9.39-4.35-9.46-10.69
		c-0.07-6.59-0.07-13.19,0-19.78c0.06-6.02,3.51-9.93,9.49-10.6c2.04-0.23,4.21-0.09,6.21,0.36c4.42,1,7.21,4.44,7.39,9
		c0.15,3.69,0.03,7.39,0.03,11.09C115.79,38.58,115.8,38.58,115.82,38.58z M107.85,38.51C107.86,38.51,107.86,38.51,107.85,38.51
		c0.01-3.25,0.02-6.51,0-9.76c-0.01-1.63-0.5-3-2.18-3.63c-2.67-1-4.95,0.5-4.97,3.35c-0.05,6.6-0.02,13.2-0.02,19.8
		c0,0.44,0.01,0.9,0.11,1.33c0.31,1.31,1.04,2.23,2.4,2.59c2.64,0.69,4.58-0.83,4.64-3.77C107.9,45.11,107.85,41.81,107.85,38.51z"
		/>
	<path class="st25" d="M205.95,18.63c2.56,0,4.99,0,7.63,0c0,0.48,0,0.95,0,1.42c0,9.13-0.13,18.27,0.04,27.4
		c0.18,9.65-7.07,12.61-13.68,11.75c-5.9-0.76-8.94-4.19-8.97-10.17c-0.05-9.85-0.02-19.7-0.02-29.54c0-0.26,0.03-0.52,0.05-0.86
		c2.64,0,5.2,0,7.95,0c0,0.55,0,1.07,0,1.59c0,9.09,0,18.18,0.01,27.27c0,0.75,0.01,1.53,0.18,2.25c0.42,1.79,1.78,2.73,3.66,2.63
		c1.74-0.1,2.91-1.24,3.1-3.08c0.06-0.57,0.05-1.16,0.05-1.74c0-9.09,0-18.18,0-27.27C205.95,19.77,205.95,19.24,205.95,18.63z"/>
	<path class="st25" d="M134.52,18.63c2.6,0,5.03,0,7.57,0c0.02,0.46,0.06,0.89,0.06,1.33c0,9.27-0.01,18.54,0.01,27.81
		c0.01,4.25-1.19,7.93-5.16,10c-4.35,2.27-8.89,2.28-13.19-0.12c-3.43-1.91-4.26-5.32-4.28-8.95c-0.04-6.73-0.01-13.46-0.01-20.19
		c0-2.94,0.03-5.88-0.02-8.82c-0.01-0.88,0.28-1.17,1.15-1.15c2.22,0.05,4.45,0.02,6.87,0.02c0,0.62,0,1.14,0,1.66
		c0,9.18-0.01,18.36,0.01,27.54c0,0.79,0.07,1.62,0.29,2.37c0.48,1.58,1.91,2.4,3.67,2.25c1.58-0.14,2.7-1.17,2.94-2.8
		c0.1-0.66,0.09-1.33,0.09-2c0-9.09,0-18.18,0-27.28C134.52,19.76,134.52,19.24,134.52,18.63z"/>
	<path class="st25" d="M89.49,31.99c-2.47,0-4.76,0-7.21,0c0-1.27,0.02-2.46-0.01-3.65c-0.05-2.22-1.35-3.5-3.51-3.52
		c-2.2-0.02-3.5,1.17-3.52,3.46c-0.05,6.77-0.05,13.55,0,20.32c0.02,2.45,1.37,3.77,3.59,3.74c2.18-0.03,3.43-1.42,3.45-3.87
		c0.01-1.02,0-2.04,0-3.18c2.37,0,4.66,0,6.96,0c1.22,7.11-1.15,13.2-9.49,13.99c-1.27,0.12-2.59,0.01-3.86-0.19
		c-5.44-0.85-8.59-4.32-8.69-9.83c-0.12-7.04-0.14-14.09-0.01-21.13c0.12-6.67,5.58-10.9,12.81-10.16c6.22,0.64,9.5,4.27,9.49,10.54
		C89.49,29.61,89.49,30.72,89.49,31.99z"/>
	<path class="st25" d="M168.8,18.63c6.37,0,12.68,0,19.09,0c0,2.18,0,4.33,0,6.61c-3.72,0-7.4,0-11.2,0c0,3.18,0,6.22,0,9.43
		c2.92,0,5.83,0,8.84,0c0,2.32,0,4.47,0,6.74c-2.93,0-5.81,0-8.82,0c0,3.51,0,6.9,0,10.45c3.73,0,7.45,0,11.24,0
		c0,2.32,0,4.49,0,6.76c-6.36,0-12.7,0-19.14,0C168.8,45.3,168.8,32.01,168.8,18.63z"/>
	<path class="st25" d="M154.03,51.9c3.97,0,7.66,0,11.43,0c0,2.28,0,4.44,0,6.71c-6.36,0-12.7,0-19.14,0c0-13.29,0-26.55,0-39.94
		c2.49,0,5.01,0,7.71,0C154.03,29.65,154.03,40.68,154.03,51.9z"/>
	<path class="st25" d="M260.04,20.18c-4.16-1.36-8.6-2.8-13.01-4.24c1.01-7.87,12.63-16.39,20.73-15.19c0,4.64,0,9.3,0,13.8
		c-1.53,0.62-3.16,0.97-4.4,1.86C262.12,17.31,261.27,18.74,260.04,20.18z"/>
</g>
</svg>
